HIERARCHY
ROOT Hips
{
	OFFSET 0.00000 0.00000 0.00000
	CHANNELS 6 Xposition Yposition Zposition Zrotation Yrotation Xrotation 
	JOINT LHipJoint
	{
		OFFSET 0 0 0
		CHANNELS 3 Zrotation Yrotation Xrotation
		JOINT LeftUpLeg
		{
			OFFSET 1.56857 -1.73443 1.15205
			CHANNELS 3 Zrotation Yrotation Xrotation
			JOINT LeftLeg
			{
				OFFSET 2.39362 -6.57643 0.00000
				CHANNELS 3 Zrotation Yrotation Xrotation
				JOINT LeftFoot
				{
					OFFSET 2.50952 -6.89485 0.00000
					CHANNELS 3 Zrotation Yrotation Xrotation
					JOINT LeftToeBase
					{
						OFFSET 0.17171 -0.47178 1.88682
						CHANNELS 3 Zrotation Yrotation Xrotation
						End Site
						{
							OFFSET 0.00000 -0.00000 0.98146
						}
					}
				}
			}
		}
	}
	JOINT RHipJoint
	{
		OFFSET 0 0 0
		CHANNELS 3 Zrotation Yrotation Xrotation
		JOINT RightUpLeg
		{
			OFFSET -1.28153 -1.73443 1.15205
			CHANNELS 3 Zrotation Yrotation Xrotation
			JOINT RightLeg
			{
				OFFSET -2.26861 -6.23296 0.00000
				CHANNELS 3 Zrotation Yrotation Xrotation
				JOINT RightFoot
				{
					OFFSET -2.54143 -6.98254 0.00000
					CHANNELS 3 Zrotation Yrotation Xrotation
					JOINT RightToeBase
					{
						OFFSET -0.23309 -0.64041 1.93119
						CHANNELS 3 Zrotation Yrotation Xrotation
						End Site
						{
							OFFSET -0.00000 -0.00000 1.02013
						}
					}
				}
			}
		}
	}
	JOINT LowerBack
	{
		OFFSET 0 0 0
		CHANNELS 3 Zrotation Yrotation Xrotation
		JOINT Spine
		{
			OFFSET -0.07096 2.10460 -0.27878
			CHANNELS 3 Zrotation Yrotation Xrotation
			JOINT Spine1
			{
				OFFSET -0.00826 2.13662 -0.08279
				CHANNELS 3 Zrotation Yrotation Xrotation
				JOINT Neck
				{
					OFFSET 0 0 0
					CHANNELS 3 Zrotation Yrotation Xrotation
					JOINT Neck1
					{
						OFFSET 0.03239 1.77799 0.24435
						CHANNELS 3 Zrotation Yrotation Xrotation
						JOINT Head
						{
							OFFSET 0.01026 1.74194 -0.49664
							CHANNELS 3 Zrotation Yrotation Xrotation
							End Site
							{
								OFFSET 0.00170 1.83057 -0.19653
							}
						}
					}
				}
				JOINT LeftShoulder
				{
					OFFSET 0 0 0
					CHANNELS 3 Zrotation Yrotation Xrotation
					JOINT LeftArm
					{
						OFFSET 3.19178 1.35907 -0.31412
						CHANNELS 3 Zrotation Yrotation Xrotation
						JOINT LeftForeArm
						{
							OFFSET 4.85247 -0.00000 -0.00000
							CHANNELS 3 Zrotation Yrotation Xrotation
							JOINT LeftHand
							{
								OFFSET 3.55584 -0.00000 0.00000
								CHANNELS 3 Zrotation Yrotation Xrotation
								JOINT LeftFingerBase
								{
									OFFSET 0 0 0
									CHANNELS 3 Zrotation Yrotation Xrotation
									JOINT LeftHandIndex1
									{
										OFFSET 0.69320 -0.00000 0.00000
										CHANNELS 3 Zrotation Yrotation Xrotation
										End Site
										{
											OFFSET 0.55888 -0.00000 0.00000
										}
									}
								}
								JOINT LThumb
								{
									OFFSET 0 0 0
									CHANNELS 3 Zrotation Yrotation Xrotation
									End Site
									{
										OFFSET 0.56741 -0.00000 0.56741
									}
								}
							}
						}
					}
				}
				JOINT RightShoulder
				{
					OFFSET 0 0 0
					CHANNELS 3 Zrotation Yrotation Xrotation
					JOINT RightArm
					{
						OFFSET -3.28999 1.24191 -0.26899
						CHANNELS 3 Zrotation Yrotation Xrotation
						JOINT RightForeArm
						{
							OFFSET -4.64462 -0.00000 0.00000
							CHANNELS 3 Zrotation Yrotation Xrotation
							JOINT RightHand
							{
								OFFSET -3.40703 -0.00000 0.00000
								CHANNELS 3 Zrotation Yrotation Xrotation
								JOINT RightFingerBase
								{
									OFFSET 0 0 0
									CHANNELS 3 Zrotation Yrotation Xrotation
									JOINT RightHandIndex1
									{
										OFFSET -0.61958 -0.00000 0.00000
										CHANNELS 3 Zrotation Yrotation Xrotation
										End Site
										{
											OFFSET -0.49952 -0.00000 0.00000
										}
									}
								}
								JOINT RThumb
								{
									OFFSET 0 0 0
									CHANNELS 3 Zrotation Yrotation Xrotation
									End Site
									{
										OFFSET -0.50715 -0.00000 0.50715
									}
								}
							}
						}
					}
				}
			}
		}
	}
}
MOTION
Frames: 13
Frame Time: .0083333
-4.6065 16.8699 0.2978 70.8473 78.3097 81.3338 0.0000 0.0000 0.0000 -35.5506 2.6565 14.3167 7.5409 15.7710 50.8916 0.0348 0.0973 3.4885 0.0680 1.6830 4.6303 0.0000 0.0000 0.0000 8.3965 5.7434 -38.4795 -3.9697 -12.1199 36.1576 -0.5902 8.3992 -14.0316 -0.0931 -1.9676 5.4161 -16.2115 -0.3318 13.3425 -0.7779 -2.6226 2.1776 8.7346 -0.9972 -4.4380 2.6879 4.8803 -29.9548 -4.0067 6.3529 12.2714 -0.8219 2.6700 8.8213 -0.0000 0.0000 0.0000 -78.0621 8.4907 64.1550 129.5029 -53.1940 -93.4284 -0.0000 0.0000 -9.6240 48.9551 -34.8301 -33.2644 -7.1250 0.0000 -0.0000 8.2833 -16.2603 -10.3618 -0.0000 0.0000 0.0000 62.6289 -47.1199 58.6098 -106.1598 58.9899 -73.9473 0.0000 -0.0000 -22.0058 -34.8212 -17.3140 11.6954 7.1250 -0.0000 -0.0000 -6.9697 -50.6435 0.9734
-4.2583 16.7678 0.2754 67.9073 78.2022 77.8347 0.0000 0.0000 0.0000 -35.3368 3.2724 12.8418 8.8561 16.7142 55.5911 0.0159 0.4213 2.2699 0.0304 1.1259 3.0953 0.0000 0.0000 0.0000 8.8790 5.7650 -37.2215 -4.1467 -12.3531 36.9928 -0.6102 8.1332 -14.1934 -0.3335 -3.7113 10.2658 -16.0810 0.0442 13.6595 -0.7366 -2.1496 2.3214 8.6459 -0.7617 -4.5847 2.6999 4.7886 -29.9319 -4.1001 6.2427 12.1802 -0.8749 2.6107 8.7865 0.0000 0.0000 0.0000 -78.3148 9.7038 64.1638 127.5621 -53.9326 -91.8669 -0.0000 0.0000 -10.6829 46.4435 -34.1469 -30.5549 -7.1250 0.0000 -0.0000 7.2295 -14.2585 -8.8481 0.0000 0.0000 0.0000 64.8655 -44.7647 56.5673 -104.7885 59.1573 -72.7710 0.0000 -0.0000 -21.4656 -34.8253 -17.4649 11.7932 7.1250 -0.0000 -0.0000 -6.9672 -50.8203 1.0034
-3.9077 16.6593 0.2557 66.6532 78.1397 75.6882 0.0000 0.0000 0.0000 -34.9372 3.9944 11.5812 10.2810 17.5649 60.4234 0.0066 1.0883 1.5261 0.0778 1.7994 4.9517 0.0000 0.0000 0.0000 9.3552 5.3821 -35.4139 -4.3480 -12.6096 37.9241 -0.9478 6.3363 -17.3670 -0.0005 0.1420 -0.3902 -15.9989 0.3009 13.6633 -0.6508 -1.7087 2.9755 8.6134 -0.6244 -3.9791 2.6339 4.7110 -29.9445 -4.2283 6.1799 11.7267 -0.9222 2.5746 8.6305 -0.0000 -0.0000 0.0000 -78.6903 10.2896 63.9874 125.3180 -54.7177 -90.0438 -0.0000 0.0000 -12.0692 43.8950 -33.3720 -27.8903 -7.1250 0.0000 -0.0000 6.1487 -12.2346 -7.3496 -0.0000 -0.0000 0.0000 67.0529 -41.6798 54.4469 -103.2283 59.3284 -71.4302 0.0000 -0.0000 -20.9861 -34.8116 -18.3851 12.3694 7.1250 -0.0000 -0.0000 -6.9048 -51.8894 1.1760
-3.5671 16.5408 0.2362 64.8553 78.0902 72.9156 0.0000 0.0000 0.0000 -34.2673 5.0530 10.2025 11.7714 18.2923 65.2625 -0.0042 1.2565 0.0739 0.0300 1.1172 3.0713 0.0000 0.0000 0.0000 9.7919 5.4422 -33.4833 -4.6134 -12.9347 39.1246 -1.2263 4.8850 -19.8868 -0.1119 2.1567 -5.9388 -15.7251 0.6977 14.4765 -0.6144 -1.2687 3.1617 8.4481 -0.3876 -4.3441 2.3903 4.5846 -29.6440 -4.0750 6.0774 11.6243 -0.8522 2.5386 8.5327 0.0000 0.0000 0.0000 -79.0356 11.5661 63.9433 122.8773 -55.4932 -88.0418 -0.0000 0.0000 -13.6489 41.0786 -32.5320 -25.1159 -7.1250 0.0000 -0.0000 4.9026 -10.1268 -5.7073 0.0000 0.0000 0.0000 68.9083 -39.3497 52.8622 -101.7825 59.4689 -70.1857 0.0000 -0.0000 -20.6110 -34.6716 -18.8366 12.5892 7.1250 -0.0000 -0.0000 -6.7281 -52.3852 1.2276
-3.2422 16.4100 0.2267 63.7239 78.3549 70.8616 0.0000 0.0000 0.0000 -33.1400 5.8847 8.7723 13.2928 18.8853 70.0325 -0.0050 1.2606 -0.3564 0.1286 2.3112 6.3665 0.0000 0.0000 0.0000 10.4440 6.0215 -31.6991 -4.9466 -13.3234 40.5914 -1.3420 5.9332 -20.7516 -0.0021 0.2933 -0.8059 -15.1173 1.1027 16.0207 -0.5794 -0.9444 2.9219 8.1226 -0.1299 -5.5561 2.4651 4.4539 -29.2142 -4.1033 5.8883 11.8100 -0.9076 2.4500 8.5299 0.0000 -0.0000 0.0000 -79.3227 13.3881 63.8607 120.2836 -56.2339 -85.8948 -0.0000 0.0000 -15.2299 38.1180 -31.5831 -22.3390 -7.1250 0.0000 -0.0000 3.5562 -7.9608 -4.0217 0.0000 -0.0000 0.0000 70.7516 -37.5324 51.6264 -100.4896 59.5801 -69.0714 0.0000 -0.0000 -20.3471 -34.4186 -19.6624 12.9827 7.1250 -0.0000 -0.0000 -6.3942 -53.2869 1.3075
-2.9297 16.2719 0.2197 62.4977 79.1468 68.8091 0.0000 0.0000 0.0000 -31.5028 6.3169 7.2140 14.8144 19.3427 74.6770 -0.0020 0.8333 -0.5591 0.1307 2.3303 6.4194 0.0000 0.0000 0.0000 11.6750 6.9116 -30.1678 -5.3479 -13.7652 42.3049 -1.5418 5.5710 -22.3254 -0.0005 0.1399 -0.3842 -14.1819 1.3605 16.9188 -0.2868 -0.5535 3.1414 7.8522 0.0634 -5.9131 2.7244 4.3567 -28.8795 -4.4937 5.7303 11.4160 -1.1133 2.3571 8.3592 -0.0000 -0.0000 0.0000 -80.0339 14.4252 63.3103 117.0866 -57.0376 -83.2243 -0.0000 0.0000 -16.5653 35.3910 -30.6015 -19.8826 -7.1250 0.0000 -0.0000 2.2896 -5.9550 -2.5167 -0.0000 -0.0000 0.0000 72.3586 -34.8327 50.4260 -99.4575 59.6593 -68.1811 0.0000 -0.0000 -20.5515 -34.3622 -20.5254 13.4814 7.1250 -0.0000 -0.0000 -6.2542 -54.2676 1.4287
-2.6179 16.1385 0.2080 55.9006 80.6993 61.4156 0.0000 0.0000 0.0000 -28.6714 7.0756 5.4298 16.2889 19.6666 79.0913 -0.0039 -1.1094 0.4448 0.0966 2.0041 5.5169 0.0000 0.0000 0.0000 14.4034 8.3778 -28.4856 -5.7102 -14.1415 43.8074 -1.7442 4.4143 -23.9488 -0.0247 1.0153 -2.7909 -12.1457 1.6761 17.8643 0.2621 0.1408 3.3497 7.1575 0.3868 -6.3747 2.8943 4.2076 -28.3704 -4.8501 5.5266 10.8120 -1.3014 2.2500 8.0842 0.0000 0.0000 0.0000 -80.9159 15.2958 62.5666 113.0646 -57.8913 -79.8331 -0.0000 0.0000 -17.6358 32.8950 -29.8538 -17.8471 -7.1250 0.0000 -0.0000 1.0521 -4.3696 -1.1294 0.0000 0.0000 0.0000 73.7039 -32.2650 49.4587 -99.1754 59.6795 -67.9376 0.0000 -0.0000 -21.0697 -35.3242 -21.5826 14.6107 7.1250 -0.0000 -0.0000 -7.2288 -55.7000 1.9053
-2.3063 16.0167 0.2011 38.1286 82.7477 43.0120 0.0000 0.0000 0.0000 -24.1864 8.1343 3.3357 17.8987 19.8938 83.8459 -1.9634 -25.9111 21.0313 0.0834 1.8626 5.1261 0.0000 0.0000 0.0000 18.9129 10.3033 -26.4520 -6.1494 -14.5716 45.5785 -2.0442 4.1789 -26.0551 -0.0054 0.4733 -1.3006 -8.9796 1.9503 18.7321 1.1466 1.0840 3.5930 6.0944 0.7999 -6.7580 3.0621 4.0395 -28.1627 -5.2168 5.2966 10.2494 -1.4909 2.1255 7.8687 -0.0000 -0.0000 0.0000 -81.8350 15.9888 61.6245 108.4277 -58.6772 -75.8880 -0.0000 0.0000 -18.5728 30.9017 -29.1064 -16.2326 -7.1250 0.0000 -0.0000 0.0657 -2.9975 -0.0690 -0.0000 -0.0000 0.0000 74.8989 -29.4203 48.7443 -98.7837 59.7065 -67.5994 0.0000 -0.0000 -21.5229 -36.4000 -22.2728 15.6123 7.1250 -0.0000 -0.0000 -8.4104 -56.7515 2.4343
-1.9891 15.9061 0.1927 7.5530 83.8558 12.0106 0.0000 0.0000 0.0000 -19.1383 8.9364 0.8489 19.0630 19.9789 87.2593 -5.1508 -46.6255 51.8691 0.0730 1.7431 4.7961 0.0000 0.0000 0.0000 23.9538 11.4919 -24.2443 -6.3608 -14.7691 46.4133 -2.3175 3.9878 -27.8534 -0.0057 0.4870 -1.3382 -5.3656 1.9920 19.3641 2.0512 1.9047 3.8991 4.7948 1.1350 -6.8406 3.5869 4.0362 -28.6040 -5.5129 5.1395 10.0404 -1.6944 2.0416 7.8796 0.0000 0.0000 0.0000 -82.5472 16.8039 60.3489 103.7523 -59.2732 -71.8807 -0.0000 0.0000 -19.4347 29.6678 -28.4993 -15.2059 -7.1250 0.0000 -0.0000 -0.5333 -2.0184 0.5518 0.0000 0.0000 0.0000 76.2234 -26.0051 48.4232 -98.6196 59.7174 -67.4577 0.0000 -0.0000 -22.1334 -36.8852 -23.6571 16.7578 7.1250 -0.0000 -0.0000 -8.8774 -58.4693 2.9391
-1.6760 15.7979 0.1773 -18.6037 83.0331 -14.2519 0.0000 0.0000 0.0000 -14.9824 9.4947 -2.4233 19.0103 19.9765 87.1053 32.9378 -52.7273 101.7269 0.0371 1.2441 3.4207 0.0000 0.0000 0.0000 28.0752 12.3307 -22.2610 -6.4597 -14.8595 46.8000 -2.5557 4.2252 -29.2711 -0.0004 0.1275 -0.3502 -2.3507 2.1308 19.5818 2.8115 2.7738 4.2512 3.6652 1.5076 -6.5937 3.8743 3.9213 -29.3846 -5.7288 4.9011 9.9339 -1.8441 1.9115 7.9619 -0.0000 -0.0000 0.0000 -83.2514 17.4498 59.1612 98.7526 -59.7085 -67.5726 -0.0000 0.0000 -20.1555 29.6052 -28.0048 -14.9383 -7.1250 0.0000 -0.0000 -0.4816 -1.4721 0.4938 -0.0000 -0.0000 0.0000 77.4104 -22.3526 47.9001 -98.5525 59.7218 -67.3998 0.0000 -0.0000 -22.4644 -37.8494 -23.9824 17.5283 7.1250 -0.0000 -0.0000 -10.0394 -59.0944 3.4794
-1.3528 15.7365 0.1681 -34.6692 83.1564 -31.1802 0.0000 0.0000 0.0000 -12.3267 8.4581 -4.8169 17.8143 19.8851 83.5976 44.0236 -37.8796 143.4911 0.0053 0.4684 1.2870 0.0000 0.0000 0.0000 30.5589 11.1803 -19.4242 -6.2868 -14.7006 46.1220 -2.8116 3.9346 -30.8234 -0.0000 0.0334 -0.0918 -0.3885 1.7937 20.6966 3.3493 2.8243 4.6632 3.0897 1.5202 -6.6825 4.1704 3.8510 -29.9104 -6.0297 4.7364 9.8031 -2.0163 1.8108 8.0030 0.0000 0.0000 0.0000 -83.8944 18.3612 57.8472 93.7450 -59.9469 -63.2427 -0.0000 0.0000 -20.6589 30.6909 -27.1646 -15.1619 -7.1250 0.0000 -0.0000 0.3022 -0.8458 -0.3067 0.0000 0.0000 0.0000 78.1087 -18.8525 47.8162 -98.7906 59.7060 -67.6053 0.0000 -0.0000 -22.0685 -37.2924 -24.3855 17.4551 7.1250 -0.0000 -0.0000 -9.3162 -59.4127 3.2970
-1.0665 15.6686 0.1776 -41.2930 82.9980 -37.5347 0.0000 0.0000 0.0000 -10.9564 7.3901 -9.1369 16.1723 19.6450 78.7447 40.3434 -12.9793 166.8270 0.0044 0.4271 1.1737 0.0000 0.0000 0.0000 31.7715 11.1335 -18.2518 -6.2807 -14.6950 46.0982 -3.0278 3.5884 -32.1088 -0.0017 0.2672 -0.7341 0.2243 1.8162 20.9541 3.6341 3.0224 4.5992 2.9890 1.6121 -6.8867 4.3707 3.8146 -30.3185 -6.2111 4.6368 9.8653 -2.1242 1.7464 8.0895 -0.0000 -0.0000 0.0000 -84.2894 19.7266 56.4219 89.4106 -59.9987 -59.4896 -0.0000 0.0000 -21.0542 31.7605 -25.6484 -15.0008 -7.1250 0.0000 -0.0000 1.2034 0.5311 -1.1924 -0.0000 -0.0000 0.0000 78.6477 -15.5038 47.9119 -98.8552 59.7016 -67.6611 0.0000 -0.0000 -21.0842 -37.7063 -23.3436 17.0310 7.1250 -0.0000 -0.0000 -9.9002 -58.3175 3.2457
-0.7373 15.6327 0.1796 -41.0056 82.5940 -37.0079 0.0000 0.0000 0.0000 -10.3319 7.0341 -13.3372 14.9437 19.3757 75.0672 40.1009 -9.5590 168.2889 0.0215 0.9476 2.6046 0.0000 0.0000 0.0000 32.3176 11.1610 -16.7276 -6.1863 -14.6065 45.7248 -3.2021 3.6186 -33.0554 -0.0000 0.0355 -0.0976 0.3383 2.0674 20.7919 3.7240 3.3770 4.6003 2.9308 1.7819 -6.8193 4.3277 3.7587 -30.7029 -6.2250 4.5789 10.0387 -2.1303 1.7075 8.2022 0.0000 0.0000 0.0000 -84.5148 21.2716 55.0027 85.8907 -59.9361 -56.4420 -0.0000 0.0000 -21.5394 32.6072 -23.3028 -14.2012 -7.1250 0.0000 -0.0000 2.1189 2.9143 -2.0098 0.0000 0.0000 0.0000 79.1140 -12.1483 48.1023 -99.0510 59.6882 -67.8302 0.0000 -0.0000 -20.5920 -37.0111 -23.0626 16.4526 7.1250 -0.0000 -0.0000 -9.0762 -57.8154 2.8627
